<?xml version="1.0" encoding="utf-8"?>
<!-- Generator: Adobe Illustrator 19.1.0, SVG Export Plug-In . SVG Version: 6.00 Build 0)  -->
<svg version="1.1" id="Layer_1" xmlns="http://www.w3.org/2000/svg" xmlns:xlink="http://www.w3.org/1999/xlink" x="0px" y="0px"
	 viewBox="-202 451.9 153.2 58.1" style="enable-background:new -202 451.9 153.2 58.1;" xml:space="preserve">
<style type="text/css">
	.st0{enable-background:new    ;}
	.st1{fill:#FFFFFF;}
</style>
<g>
	<g class="st0">
		<path class="st1" d="M-200.3,467.6c0-4.9,0.1-14.8,7.5-14.8c3,0,4.8,1.6,6,4.3v0.4c0,0.3,0,0.6-0.3,0.7l-3.3,1.6
			c-0.6-1.9-1.5-2.7-2.4-2.7c-2.2,0-3.2,4.8-3.2,9.5c0,4.8,1,9.5,3,9.5c3,0,3.1-2.2,3.1-4.8c0-0.5-0.1-1.4-0.5-1.4h-2.2
			c-0.2,0-0.5-0.5-0.5-0.7v-2.8c0-0.2,0.2-0.6,0.5-0.6c0.5,0,3.5-0.1,4.1-0.1h0.4c0.7,0,1.3,0,1.5,0.8c0.3,1.5,0.3,3,0.3,4.5
			c0,2.2-0.2,3.6-1,5.7c-0.9,2.5-3.6,3.3-5.9,3.3c-6.5,0-7.2-7.3-7.2-12.2L-200.3,467.6L-200.3,467.6z"/>
		<path class="st1" d="M-183.3,453.7c0-0.5,0.1-1,0.6-1.2c1-0.1,1.9-0.1,2.8-0.1h3.9c3.2,0.3,3.9,3,4.2,5.7c0,4.7-0.1,6.3-0.2,6.7
			c-0.5,2.3-2,2.5-2.6,3.2c0,0,0,0.1,0,0.2c1.1,2.3,3.1,6.9,3.1,10.6c0,0.7-2.4,0.8-2.9,0.9c-0.7,0-0.7-1-0.9-1.5
			c0-1.6-1.8-8.9-3.6-8.9c-0.3,0-0.8,0-0.9,0.4v4.5c0,1.6,0,3.2,0,4.8c0,0.5,0,0.9-0.6,0.9h-2.9c-0.7,0-0.7-1.1-0.7-1.6
			L-183.3,453.7z M-179.2,465c0,0.5,0.5,0.7,1,0.7c1.1,0,1.8-0.2,2.1-1.3c0.2-1.7,0.2-2.8,0.2-4.4v-2c-0.2-0.9-0.8-1.3-1.7-1.3
			s-1.4,0.3-1.5,1.2L-179.2,465z"/>
		<path class="st1" d="M-167.8,452.9h3.3c0.7,0,4,0,4.7,0.1c0.3,0.1,0.4,0.2,0.5,0.5c0,0.9,0,1.8,0,2.9c0,0.4-0.1,0.8-0.8,0.8h-4.4
			l-0.4,0.4l0.2,6.8l3.4,0.1c0.5,0,0.6,0.9,0.6,1.7v0.3l-0.1,1c0,0.3-0.1,0.9-0.6,0.9h-3.1c0,0-0.1,0.1-0.2,0.1l-0.1,0.1l0.2,6.3
			c0.1,0.5,0.3,0.8,0.8,0.8h4.4c0.7,0,0.8,0.5,0.8,1.1l-0.2,2.3c0,0.3-0.3,0.6-0.6,0.7l-8.7,0.3c-0.5,0-0.9-0.6-0.9-10.3
			c0-2.6,0-5.2,0-8s0-5.5,0.1-8.3C-168.6,453-168.2,452.9-167.8,452.9z"/>
		<path class="st1" d="M-155.5,452.9h3.3c0.7,0,4,0,4.7,0.1c0.3,0.1,0.4,0.2,0.5,0.5c0,0.9,0,1.8,0,2.9c0,0.4-0.1,0.8-0.8,0.8h-4.4
			l-0.4,0.4l0.2,6.8l3.4,0.1c0.5,0,0.6,0.9,0.6,1.7v0.3l-0.1,1c0,0.3-0.1,0.9-0.6,0.9h-3.1c0,0-0.1,0.1-0.2,0.1l-0.1,0.1l0.2,6.3
			c0.1,0.5,0.3,0.8,0.8,0.8h4.4c0.7,0,0.8,0.5,0.8,1.1l-0.2,2.3c0,0.3-0.3,0.6-0.6,0.7l-8.7,0.3c-0.5,0-0.9-0.6-0.9-10.3
			c0-2.6,0-5.2,0-8s0-5.5,0.1-8.3C-156.3,453-155.9,452.9-155.5,452.9z"/>
		<path class="st1" d="M-140,460.5c-0.1,0-0.1,0.8-0.1,2.2c0,3.5,0.2,10.6,0.2,17.1c0,0.9-0.7,1-1.4,1c-0.2,0-0.5,0-0.7,0
			s-0.5,0-0.8,0c-0.6,0-1.2-0.1-1.3-0.6v-11.8c0-3.4-0.1-6.8-0.1-10.2c0-0.6,0-3.4,0-4c0-0.3,0.2-0.6,0.7-0.6h4.8
			c0.3,0,0.7,0.1,0.7,0.5l5.7,18.9l-0.9-18.8c0.1-0.3,0.4-0.5,0.7-0.5h2.9c0.2,0,0.5,0.1,0.6,0.3v0.2c0,1.4,0.2,5.7,0.2,8.5
			c0,1.3,0.2,8.4,0.2,13.2c0,2.6-0.1,4.6-0.2,4.6h-4.2c-0.4,0-0.7-0.3-0.8-0.6L-140,460.5z"/>
	</g>
	<g class="st0">
		<path class="st1" d="M-122.9,476.6c1.1,0,2,0.9,2,2c0,0.3-0.2,2.8-1.6,5.1l-0.7-0.1l0.4-3c0,0.1-0.1,0.1-0.3,0.1c-0.6,0-2-0.5-2-2
			C-124.9,477.5-124.1,476.6-122.9,476.6z"/>
	</g>
	<g class="st0">
		<path class="st1" d="M-120.5,467.6c0-4.9,0.1-14.8,7.5-14.8c3,0,4.8,1.6,6,4.3v0.4c0,0.3,0,0.6-0.3,0.7l-3.3,1.6
			c-0.6-1.9-1.5-2.7-2.4-2.7c-2.2,0-3.2,4.8-3.2,9.5c0,4.8,1,9.5,3,9.5c3,0,3.1-2.2,3.1-4.8c0-0.5-0.1-1.4-0.5-1.4h-2.2
			c-0.2,0-0.5-0.5-0.5-0.7v-2.8c0-0.2,0.2-0.6,0.5-0.6c0.5,0,3.5-0.1,4.1-0.1h0.4c0.7,0,1.3,0,1.5,0.8c0.3,1.5,0.3,3,0.3,4.5
			c0,2.2-0.2,3.6-1,5.7c-0.9,2.5-3.6,3.3-5.9,3.3c-6.5,0-7.2-7.3-7.2-12.2L-120.5,467.6L-120.5,467.6z"/>
		<path class="st1" d="M-103.5,453.7c0-0.5,0.1-1,0.6-1.2c1-0.1,1.9-0.1,2.8-0.1h3.9c3.2,0.3,3.9,3,4.2,5.7c0,4.7-0.1,6.3-0.2,6.7
			c-0.5,2.3-2,2.5-2.6,3.2c0,0,0,0.1,0,0.2c1.1,2.3,3.1,6.9,3.1,10.6c0,0.7-2.4,0.8-2.9,0.9c-0.7,0-0.7-1-0.9-1.5
			c0-1.6-1.8-8.9-3.6-8.9c-0.3,0-0.8,0-0.9,0.4v4.5c0,1.6,0,3.2,0,4.8c0,0.5,0,0.9-0.6,0.9h-2.9c-0.7,0-0.7-1.1-0.7-1.6
			L-103.5,453.7z M-99.4,465c0,0.5,0.5,0.7,1,0.7c1.1,0,1.8-0.2,2.1-1.3c0.2-1.7,0.2-2.8,0.2-4.4v-2c-0.2-0.9-0.8-1.3-1.7-1.3
			c-0.9,0-1.4,0.3-1.5,1.2L-99.4,465z"/>
		<path class="st1" d="M-88,452.9h3.3c0.7,0,4,0,4.7,0.1c0.3,0.1,0.4,0.2,0.5,0.5c0,0.9,0,1.8,0,2.9c0,0.4-0.1,0.8-0.8,0.8h-4.4
			l-0.4,0.4l0.2,6.8l3.4,0.1c0.5,0,0.6,0.9,0.6,1.7v0.3l-0.1,1c0,0.3-0.1,0.9-0.6,0.9h-3.1c0,0-0.1,0.1-0.2,0.1l-0.1,0.1l0.2,6.3
			c0.1,0.5,0.3,0.8,0.8,0.8h4.4c0.7,0,0.8,0.5,0.8,1.1l-0.2,2.3c0,0.3-0.3,0.6-0.6,0.7l-8.7,0.3c-0.5,0-0.9-0.6-0.9-10.3
			c0-2.6,0-5.2,0-8s0-5.5,0.1-8.3C-88.8,453-88.4,452.9-88,452.9z"/>
		<path class="st1" d="M-75.7,452.9h3.3c0.7,0,4,0,4.7,0.1c0.3,0.1,0.4,0.2,0.5,0.5c0,0.9,0,1.8,0,2.9c0,0.4-0.1,0.8-0.8,0.8h-4.4
			l-0.4,0.4l0.2,6.8l3.4,0.1c0.5,0,0.6,0.9,0.6,1.7v0.3l-0.1,1c0,0.3-0.1,0.9-0.6,0.9h-3.1c0,0-0.1,0.1-0.2,0.1l-0.1,0.1l0.2,6.3
			c0.1,0.5,0.3,0.8,0.8,0.8h4.4c0.7,0,0.8,0.5,0.8,1.1l-0.2,2.3c0,0.3-0.3,0.6-0.6,0.7l-8.7,0.3c-0.5,0-0.9-0.6-0.9-10.3
			c0-2.6,0-5.2,0-8s0-5.5,0.1-8.3C-76.5,453-76.1,452.9-75.7,452.9z"/>
		<path class="st1" d="M-60.2,460.5c-0.1,0-0.1,0.8-0.1,2.2c0,3.5,0.2,10.6,0.2,17.1c0,0.9-0.7,1-1.4,1c-0.2,0-0.5,0-0.7,0
			s-0.5,0-0.8,0c-0.6,0-1.2-0.1-1.3-0.6v-11.8c0-3.4-0.1-6.8-0.1-10.2c0-0.6,0-3.4,0-4c0-0.3,0.2-0.6,0.7-0.6h4.8
			c0.3,0,0.7,0.1,0.7,0.5l5.7,18.9l-0.9-18.8c0.1-0.3,0.4-0.5,0.7-0.5h2.9c0.2,0,0.5,0.1,0.6,0.3v0.2c0,1.4,0.2,5.7,0.2,8.5
			c0,1.3,0.2,8.4,0.2,13.2c0,2.6-0.1,4.6-0.2,4.6h-4.2c-0.4,0-0.7-0.3-0.8-0.6L-60.2,460.5z"/>
	</g>
	<g class="st0">
		<path class="st1" d="M-188.2,484.2L-188.2,484.2c0.1,0,0.1,0,0.2,0.1c0.1,0.1,0.2,0.2,0.2,0.3c0.1,0.1,0.2,0.2,0.3,0.3
			c0.1,0.1,0.1,0.2,0.2,0.3c0.1,0.4,0.2,0.8,0.3,1.2c0.1,0.4,0.1,0.8,0.1,1.2c0,0.3,0,0.6-0.1,0.8v0.6l0,0l0,0l-0.1,0.1h-0.1
			c0,0.1-0.1,0.2-0.1,0.4s-0.1,0.2-0.2,0.4c-0.1,0.3-0.1,0.5-0.2,0.8c-0.1,0.3-0.2,0.5-0.3,0.8l0,0c0,0.1-0.1,0.1-0.2,0.1l-0.2,0.4
			c0,0.1-0.1,0.1-0.2,0.1c-0.2,0.3-0.4,0.7-0.7,1c-0.3,0.4-0.6,0.6-0.8,0.8c-0.1,0.1-0.2,0.3-0.3,0.5c0.2,0.3,0.4,0.6,0.7,0.9
			c0.2,0.3,0.5,0.6,0.8,0.8c0.1,0.1,0.2,0.2,0.4,0.2c0.1,0,0.2,0.1,0.3,0.2c0.2,0.2,0.3,0.4,0.4,0.6s0.2,0.4,0.4,0.6l0.3,0.4
			l0.2-0.3l-0.1-0.1c0-0.1,0-0.2,0.1-0.2c0.2,0,0.4-0.1,0.5-0.2c0.2-0.1,0.3-0.2,0.5-0.3c0.2-0.1,0.3-0.2,0.5-0.3
			c0.2-0.1,0.3-0.2,0.5-0.2h0.1c0,0,0.1-0.1,0.2-0.1c0.1,0,0.2,0.1,0.3,0.2s0.2,0.3,0.3,0.5c0.1,0.1,0.2,0.2,0.3,0.3
			c0.1,0.1,0.3,0.3,0.4,0.4c0.1,0.1,0.3,0.2,0.4,0.4c0.1,0.1,0.2,0.2,0.2,0.3h0.1v0.1l0,0l0,0l0,0c0.1,0,0.2,0.1,0.2,0.2
			c0,0,0,0.1-0.1,0.1l-0.6,0.6c0,0-0.1,0.1-0.1,0.2c-0.1,0.1-0.1,0.2-0.2,0.3c-0.1,0.1-0.2,0.2-0.3,0.3s-0.2,0.1-0.2,0.1l0,0
			c-0.1,0.1-0.2,0.2-0.3,0.3c-0.2,0.2-0.3,0.3-0.4,0.4l0.7,0.7c0.2,0.2,0.4,0.4,0.6,0.5c0.2,0.2,0.4,0.4,0.5,0.6c0.1,0,0.1,0,0.2,0
			c0,0,0.1,0.1,0.1,0.2c0,0,0,0,0,0.1v0.1c0,0.1-0.1,0.1-0.1,0.2c-0.1,0.1-0.2,0.2-0.3,0.3c-0.1,0.1-0.2,0.2-0.4,0.3
			c-0.1,0.1-0.3,0.2-0.4,0.3c-0.2,0.2-0.3,0.4-0.5,0.6s-0.3,0.4-0.5,0.5l0.1,0.2l0,0l0,0c0,0.1-0.1,0.2-0.2,0.2l-0.3-0.1
			c-0.2,0.3-0.4,0.5-0.6,0.7s-0.5,0.4-0.7,0.6l-0.1,0.1c-0.2,0.1-0.4,0.2-0.6,0.4c-0.2,0.1-0.4,0.3-0.5,0.5l-0.1-0.1
			c0,0,0-0.1-0.1-0.1l-0.3-0.6l0,0l-0.4-0.6c-0.1,0-0.1-0.1-0.1-0.1s0,0.1-0.1,0.1l-0.4,0.1c-0.2,0.2-0.5,0.4-0.8,0.7
			c-0.3,0.2-0.6,0.5-0.9,0.7s-0.5,0.4-0.8,0.5c-0.2,0.1-0.4,0.2-0.5,0.2c0,0,0,0-0.1,0c0,0,0,0-0.1,0s-0.2,0.1-0.3,0.1
			s-0.2,0.1-0.3,0.1s-0.1,0-0.1,0l-0.5,0.2c-0.2,0.1-0.4,0.1-0.7,0.1s-0.5,0-0.8,0c-0.2,0-0.5,0-0.7,0s-0.5-0.1-0.7-0.2
			c-0.7-0.1-1.3-0.2-1.8-0.5c-0.5-0.2-0.9-0.6-1.2-0.9l0,0c0,0.1-0.1,0.1-0.2,0.1c0,0-0.1,0-0.2-0.1c-0.1,0-0.1-0.1-0.1-0.2v-0.1
			c0-0.1-0.1-0.2-0.2-0.3c-0.1-0.1-0.1-0.2-0.2-0.3s-0.1-0.2-0.2-0.3c0-0.1-0.1-0.1-0.1-0.2c0,0,0-0.1,0-0.2
			c-0.1-0.2-0.1-0.4-0.2-0.6l0,0l-0.1-0.1c0,0-0.1-0.1-0.1-0.2v-0.1v-0.1c0-0.1-0.1-0.2-0.2-0.3s-0.1-0.3-0.2-0.6l-0.1,0.1
			c-0.1,0-0.2-0.1-0.2-0.2c0-0.2,0-0.5,0.1-0.7s0.1-0.6,0.2-0.8c-0.1,0-0.2-0.1-0.2-0.2v-0.1v-0.1c-0.1,0-0.1-0.1-0.1-0.2
			s0.1-0.3,0.1-0.6s0.1-0.5,0.2-0.8s0.2-0.6,0.3-0.9s0.3-0.7,0.5-1v-0.1l0,0l0,0v-0.1c0,0,0,0-0.1-0.1v-0.1c0-0.1,0-0.2,0.1-0.3
			c0.1-0.1,0.1-0.2,0.2-0.3c0.1-0.1,0.2-0.2,0.3-0.3c0.1-0.1,0.2-0.2,0.2-0.2l0,0c0.1-0.1,0.1-0.2,0.2-0.3s0.2-0.2,0.2-0.3
			c0.1-0.1,0.1-0.2,0.1-0.3s0.1-0.2,0.2-0.2h0.1l0.7-0.6l0.1-0.1c0-0.1-0.1-0.1-0.2-0.3s-0.2-0.2-0.2-0.2l-0.1-0.1
			c0,0-0.1-0.1-0.2-0.2s-0.2-0.2-0.2-0.3s-0.1-0.2-0.2-0.3c-0.1-0.1-0.1-0.2-0.1-0.2s0,0,0-0.1c-0.1-0.2-0.3-0.5-0.4-0.8
			s-0.3-0.6-0.4-0.9c-0.1-0.2-0.2-0.5-0.3-0.7c0-0.3-0.1-0.6-0.3-0.9h-0.1c-0.1,0-0.2-0.1-0.2-0.2V490c0-0.2,0.1-0.5,0.1-0.7
			c0.1-0.2,0.1-0.5,0.2-0.7c0.1-0.4,0.2-0.9,0.3-1.3s0.2-0.8,0.5-1.2c-0.1,0-0.2-0.1-0.2-0.2c0,0,0-0.1,0.1-0.2s0.2-0.1,0.3-0.2
			s0.2-0.1,0.3-0.2s0.2-0.2,0.3-0.3l0.6-0.6l0,0l0,0c0.1,0,0.3-0.1,0.6-0.2s0.5-0.3,0.8-0.4s0.6-0.3,0.8-0.5
			c0.3-0.2,0.5-0.3,0.6-0.5l0.1-0.1l-0.3,0.3c0.4-0.2,0.9-0.4,1.4-0.5c0.1,0,0.1,0,0.1,0.1c0.1-0.1,0.3-0.1,0.4-0.1s0.3-0.1,0.4-0.1
			h0.1h0.1c0.2,0,0.4-0.1,0.7-0.1s0.5,0,0.7,0c0.6,0,1.1,0.1,1.7,0.3c0.6,0.2,1,0.5,1.4,0.9l0.1,0.1L-188.2,484.2z M-200.7,503.6
			c0,0.1,0,0.1,0,0.2s0,0.1,0,0.2v0.3c0-0.1,0.1-0.2,0.1-0.3c0-0.1,0.1-0.2,0.2-0.3v-0.5c-0.1,0.1-0.1,0.1-0.2,0.2
			C-200.6,503.4-200.7,503.5-200.7,503.6L-200.7,503.6z M-200.7,503.1l0.3-0.3v-0.1c-0.1,0.1-0.1,0.1-0.2,0.2
			C-200.6,502.9-200.7,503-200.7,503.1L-200.7,503.1z M-200.6,502.3c0-0.1,0.1-0.1,0.1-0.2s0.1-0.1,0.2-0.2v-0.3
			c-0.1,0.1-0.1,0.1-0.2,0.2s-0.1,0.1-0.1,0.2s0,0.1,0,0.1C-200.6,502.2-200.6,502.2-200.6,502.3z M-200.6,505l0.3-0.3
			c0-0.1,0-0.1,0-0.2s0-0.1,0-0.2c-0.1,0.1-0.1,0.2-0.2,0.3C-200.5,504.8-200.6,504.9-200.6,505L-200.6,505z M-200.4,501.2
			L-200.4,501.2c0.1-0.2,0.1-0.3,0.1-0.3s0-0.2,0-0.3L-200.4,501.2z M-200.4,505.4L-200.4,505.4l0.1-0.1L-200.4,505.4z M-200,502.9
			v0.3l0.2-0.2l0,0L-200,502.9L-200,502.9z M-199.9,489.1l0.1-0.2l-0.1-0.5l-0.1,0.1v0.2L-199.9,489.1z M-199.7,501.3v-0.1v-0.1
			l-0.2,0.2c0,0.1,0,0.1,0,0.3L-199.7,501.3z M-199.8,502.3C-199.8,502.3-199.8,502.2-199.8,502.3c0-0.1,0-0.1,0-0.1v-0.1V502
			l-0.1,0.2C-199.9,502.1-199.9,502.2-199.8,502.3L-199.8,502.3z M-199.7,489.6v-0.2c0,0.1-0.1,0.1-0.1,0.2s0,0.1-0.1,0.2
			L-199.7,489.6z M-199.6,490.7v0.1l0.1-0.1l-0.1-0.7c-0.1,0-0.1,0.1-0.2,0.1c0,0-0.1,0-0.1,0.1l0.1,0.5
			C-199.7,490.7-199.7,490.7-199.6,490.7L-199.6,490.7z M-199.6,498.9v-0.1c0,0,0-0.1,0.1-0.1l-0.4,0.5L-199.6,498.9z M-199.6,503.4
			l-0.1,0.1l-0.1,0.1v0.1c0,0.1,0,0.2,0,0.3s0,0.2,0,0.3l0.3-0.3c0-0.1,0-0.2-0.1-0.3C-199.6,503.6-199.6,503.5-199.6,503.4z
			 M-199.4,499.9c0-0.1,0.1-0.1,0.2-0.1l0,0l0,0c0-0.2,0.1-0.4,0.2-0.6l-0.5,0.5c-0.1,0.3-0.2,0.6-0.3,1l0.2-0.2
			c0-0.1,0.1-0.2,0.1-0.3C-199.5,500.1-199.5,500-199.4,499.9z M-199.8,487L-199.8,487l0.1,0.3l0.3-0.3c0-0.1,0-0.1,0-0.2
			s0-0.1,0-0.2L-199.8,487z M-199.5,504.9L-199.5,504.9L-199.5,504.9c-0.1,0.1-0.2,0.2-0.3,0.3l0.1,0.2c0,0,0,0,0.1,0.1l0.1,0.1
			l0.4-0.3c0-0.1-0.1-0.2-0.1-0.3C-199.4,505-199.5,505-199.5,504.9z M-199.8,506.5v0.1V506.5z M-199.4,487.5
			c-0.1,0.1-0.2,0.2-0.2,0.3v0.1l0.2-0.2C-199.4,487.7-199.4,487.6-199.4,487.5z M-199.4,488.1c0,0-0.1,0-0.1,0.1c0,0-0.1,0-0.1,0.1
			l0.1,0.3l0.9-0.2L-199.4,488.1z M-199.4,497.9v0.1v0.1c0.1-0.1,0.2-0.2,0.3-0.4c0.1-0.1,0.2-0.2,0.3-0.4l0.2-0.5l-0.1,0.1
			c-0.1,0.1-0.2,0.3-0.3,0.5C-199.2,497.6-199.3,497.7-199.4,497.9z M-199.4,489l0.1,0.4l0.2-0.1c0-0.1,0-0.2,0-0.2
			c0-0.1,0-0.1,0-0.2L-199.4,489z M-199.4,506.1c0.1-0.1,0.2-0.2,0.3-0.4l0,0l0,0l-0.3,0.3V506.1z M-199.4,501.3c0,0.1,0,0.2,0,0.3
			s0,0.2,0,0.4c0,0,0.1-0.1,0.2-0.1c0-0.2-0.1-0.5-0.1-0.7L-199.4,501.3z M-199.2,502.3c0,0-0.1,0-0.1,0.1c0,0-0.1,0-0.1,0.1v0.1
			L-199.2,502.3z M-199.3,504.7L-199.3,504.7L-199.3,504.7C-199.3,504.7-199.3,504.6-199.3,504.7L-199.3,504.7z M-199.1,489.6
			C-199.1,489.7-199.2,489.7-199.1,489.6c-0.1,0.1-0.2,0.1-0.2,0.1l0.1,0.5l0.2-0.2L-199.1,489.6z M-199.3,503.3l0.1,0.5l0.6-0.4
			l-0.4-0.7l-0.3,0.3l0.3,0.1c0.1,0,0.1,0.1,0.1,0.2s-0.1,0.2-0.2,0.2L-199.3,503.3z M-199.3,506.7L-199.3,506.7l0.1,0.1
			L-199.3,506.7L-199.3,506.7z M-199.1,486.3c0,0.1,0,0.1,0,0.2s0,0.1,0,0.2l0.2-0.2l0.1-0.5L-199.1,486.3z M-199.1,490.8
			L-199.1,490.8l0.2-0.1v-0.1L-199.1,490.8z M-198.2,497.2c-0.2,0.2-0.4,0.4-0.5,0.7c-0.1,0.2-0.3,0.5-0.4,0.7l0.4-0.3
			c0.1-0.2,0.2-0.4,0.2-0.5C-198.4,497.5-198.3,497.3-198.2,497.2z M-199.1,487.2v0.1c0,0,0,0.1,0,0.2l0.1-0.1c0-0.1,0-0.1,0-0.2
			s0-0.1,0-0.2L-199.1,487.2z M-198.9,506.6C-198.9,506.5-198.9,506.5-198.9,506.6c0.1-0.1,0.2-0.2,0.2-0.2l-0.2-0.3l-0.1,0.1
			c0,0,0,0.1-0.1,0.1L-198.9,506.6C-198.9,506.5-198.9,506.6-198.9,506.6z M-199,487.9L-199,487.9c0,0.1,0,0.2,0,0.2l0.1-0.1v-0.2
			L-199,487.9z M-199,491.2v0.1c0,0,0,0.1,0,0.2l0.3-0.2c0-0.1,0-0.1-0.1-0.2L-199,491.2L-199,491.2z M-198.6,504.9l-0.4-0.4
			l0.2,0.6L-198.6,504.9z M-198.6,507.5c0-0.1,0.1-0.2,0.2-0.3c0.1-0.1,0.1-0.2,0.2-0.2l-0.2-0.3l-0.5,0.4
			C-198.9,507.3-198.7,507.4-198.6,507.5z M-198.9,488.4L-198.9,488.4L-198.9,488.4v0.6h0.1c0-0.1,0-0.2,0-0.3
			C-198.9,488.6-198.9,488.5-198.9,488.4z M-198.8,501.4c0-0.1,0-0.2-0.1-0.3c0-0.1,0-0.2,0-0.4l0,0c0,0.2,0,0.3,0,0.5s0,0.3,0,0.5
			C-198.9,501.6-198.9,501.5-198.8,501.4z M-198.8,493.7L-198.8,493.7L-198.8,493.7L-198.8,493.7z M-198.9,504.1l0.6,0.6l0.1-0.1
			c0,0,0.1,0,0.2-0.1l-0.4-0.8l-0.1,0.1L-198.9,504.1z M-198.8,491.9c0,0.1,0,0.2,0.1,0.3l0.3-0.2l-0.1-0.3L-198.8,491.9z
			 M-198.8,489.3C-198.8,489.4-198.8,489.4-198.8,489.3l0.1,0.4l0,0L-198.8,489.3z M-198.7,492.5c0,0.1,0.1,0.2,0.1,0.3
			c0,0.1,0.1,0.2,0.1,0.3c0-0.1,0.1-0.1,0.1-0.2s0.1-0.1,0.2-0.2c0-0.1-0.1-0.2-0.1-0.2c0-0.1-0.1-0.2-0.1-0.2L-198.7,492.5z
			 M-198.6,490.1l0.1,0.3l0,0L-198.6,490.1L-198.6,490.1z M-198.6,487.5v0.1l0.1-0.1l0,0c0,0,0,0,0-0.1L-198.6,487.5z M-198.5,486.7
			c0,0.1,0,0.2,0,0.3c0,0.1,0,0.2,0,0.2l0.1-0.1L-198.5,486.7L-198.5,486.7z M-198.5,488.1c0,0.2,0,0.5,0.1,0.7l0.2-0.1
			c0-0.1,0-0.2-0.1-0.3c0-0.1,0-0.2,0-0.3L-198.5,488.1z M-198.2,494.6L-198.2,494.6c0-0.1-0.1-0.2-0.1-0.2c0-0.1-0.1-0.1-0.1-0.2
			h-0.1L-198.2,494.6z M-198.5,505.7l0.1-0.1c0.1,0,0.2,0.1,0.2,0.2s0,0.1-0.1,0.2c0.1-0.1,0.3-0.2,0.4-0.3l-0.4-0.4
			c-0.1,0.1-0.1,0.1-0.2,0.2C-198.5,505.6-198.5,505.6-198.5,505.7L-198.5,505.7z M-198.4,485.6l-0.1,0.5l0,0c0-0.1,0-0.2,0-0.3
			C-198.4,485.7-198.4,485.6-198.4,485.6L-198.4,485.6z M-198.5,489.1c0,0.1,0,0.2,0,0.2l0.2-0.2V489L-198.5,489.1z M-184.3,500.5
			L-184.3,500.5L-184.3,500.5l0.3-0.3c0.2-0.2,0.4-0.4,0.6-0.7c0.2-0.2,0.4-0.4,0.6-0.6c-0.1,0-0.1-0.1-0.1-0.2l0,0
			c-0.2,0-0.3-0.1-0.5-0.2s-0.3-0.2-0.5-0.3c-0.1-0.1-0.3-0.3-0.4-0.4c-0.1-0.2-0.2-0.3-0.2-0.5v-0.1c0,0,0-0.1-0.1-0.1
			c0,0,0-0.1-0.1-0.1c-0.2,0.3-0.5,0.6-0.7,0.9c-0.3,0.3-0.5,0.6-0.8,0.8l-0.2,0.3c-0.1,0-0.1,0-0.1,0s-0.1,0-0.1-0.1l0,0l0,0
			l0.1,0.1c-0.2,0.2-0.4,0.4-0.5,0.6c-0.1-0.1-0.2-0.2-0.2-0.3s-0.2-0.2-0.2-0.3h-0.1c-0.1,0-0.2-0.1-0.2-0.2s0-0.1,0-0.1v-0.1
			c0,0,0-0.1-0.1-0.1c0,0,0-0.1-0.1-0.1c-0.2-0.2-0.5-0.5-0.8-0.8c-0.3-0.4-0.5-0.8-0.8-1.1c-0.3-0.3-0.6-0.7-0.9-1
			c-0.3-0.3-0.6-0.7-0.9-1c0.1-0.1,0.2-0.2,0.3-0.3s0.1-0.2,0.2-0.3l0,0l0,0l0,0l0.4-0.4c0.1-0.2,0.3-0.4,0.5-0.7
			c0.2-0.2,0.4-0.4,0.5-0.5l0,0c0.3-0.5,0.6-1,0.8-1.4s0.5-0.9,0.7-1.3v-0.1v-0.1l0.2-0.3c0-0.1,0-0.2,0-0.2v-0.2l0.1-0.1
			c-0.1,0-0.2-0.1-0.2-0.2c0-0.6,0-1.1-0.1-1.7c-0.1-0.5-0.2-1.1-0.3-1.6l0,0c-0.1-0.1-0.2-0.2-0.2-0.4c-0.1-0.1-0.1-0.3-0.2-0.4
			c-0.1-0.1-0.1-0.3-0.2-0.4s-0.2-0.2-0.3-0.3l0,0c-0.1,0-0.1-0.1-0.1-0.2c-0.5-0.4-1.2-0.7-1.9-0.8c-0.1,0-0.3,0.1-0.4,0.1
			c-0.1,0-0.2,0-0.3,0s-0.2,0-0.3,0s-0.3,0-0.4,0.1c-0.1,0-0.3,0-0.4,0c-0.1,0-0.2,0-0.3,0c-0.1,0.1-0.3,0.2-0.5,0.2s-0.4,0-0.6,0.1
			l-0.4,0.1l0,0l0,0c-0.2,0.1-0.5,0.3-0.7,0.4s-0.6,0.3-0.9,0.5c-0.1,0.1-0.2,0.2-0.3,0.3s-0.2,0.3-0.3,0.4s-0.2,0.3-0.2,0.5
			c-0.1,0.2-0.1,0.3-0.2,0.5l0,0c0,0.1,0,0.2,0,0.3c0,0.1,0,0.2,0,0.3v0.1c0,0.2,0,0.3,0,0.5s0,0.3,0,0.5l0,0c0,0.3,0.1,0.7,0.1,1
			s0.1,0.6,0.1,0.9c0.1,0.2,0.1,0.3,0.2,0.5c0.1,0.1,0.1,0.3,0.1,0.5l0,0c0.1,0.2,0.2,0.4,0.3,0.5c0.1,0.2,0.2,0.4,0.3,0.6
			c0.1,0.1,0.2,0.2,0.3,0.4s0.3,0.3,0.5,0.5c0.1,0.2,0.3,0.4,0.4,0.5c0.1,0.2,0.2,0.3,0.2,0.4l-0.1,0.1c0,0.1,0.1,0.1,0.1,0.2
			s0.1,0.1,0.1,0.2l0.1,0.1c-0.1,0.1-0.1,0.1-0.2,0.2c-0.1,0.1-0.1,0.1-0.2,0.2l-0.1,0.1c0,0,0,0,0-0.1c0,0-0.1,0.1-0.3,0.3
			s-0.3,0.3-0.4,0.5s-0.3,0.4-0.5,0.6s-0.3,0.3-0.4,0.4l0,0l-0.1,0.1c-0.1,0.1-0.1,0.2-0.2,0.2c0,0.1-0.1,0.1-0.2,0.2
			c-0.1,0.1-0.1,0.1-0.1,0.1c-0.1,0.2-0.2,0.5-0.2,0.7c-0.1,0.3-0.2,0.5-0.4,0.7c-0.1,0-0.1,0.1-0.2,0.2c-0.1,0.1-0.1,0.2-0.2,0.4
			s-0.1,0.3-0.1,0.4s-0.1,0.2-0.1,0.3c0,0.3,0.1,0.7,0.1,1.1s0,0.7,0.1,1.1c0.1,0,0.1,0.1,0.1,0.2s0,0.1-0.1,0.2l0,0
			c0,0.1,0,0.1,0,0.2s0,0.1,0,0.2c0,0,0,0,0,0.1l0,0l0.1,0.4l0,0h0.1c0.1,0,0.2,0.1,0.3,0.2s0.2,0.2,0.3,0.4
			c0.1,0.2,0.2,0.3,0.3,0.5s0.2,0.3,0.2,0.5c0.2,0.2,0.3,0.5,0.4,0.7c0.2,0.1,0.4,0.3,0.5,0.4s0.3,0.2,0.5,0.2c0.1,0,0.2,0,0.3,0.1
			c0.1,0,0.2,0,0.3,0.1c0.1,0,0.2-0.1,0.3-0.1c0.2,0,0.4,0,0.5,0.1c0.2,0,0.4,0.1,0.5,0.1c0.5,0,0.9,0,1.3-0.1
			c0.4-0.1,0.7-0.1,1.1-0.1c0.1,0,0.1,0,0.2,0.1s0.1,0.1,0.1,0.1c0.1-0.1,0.3-0.1,0.4-0.2c0.1-0.1,0.2-0.1,0.4-0.2
			c0.1-0.1,0.2-0.1,0.4-0.2c0.1-0.1,0.3-0.2,0.5-0.3c0.2-0.2,0.4-0.3,0.5-0.5s0.4-0.3,0.6-0.4h0.1l0.3-0.2l0.3-0.3c0,0,0,0,0-0.1
			s0-0.1,0.1-0.2v-0.1l0.1-0.1l0.2-0.1c0.1,0.1,0.1,0.2,0.3,0.3c0.1,0.1,0.2,0.2,0.3,0.3c0.1,0.1,0.2,0.2,0.3,0.2
			c0.1,0.1,0.1,0.1,0.1,0.2v0.1l0.6,0.8c0,0.1,0.1,0.1,0.1,0.2s0.1,0.1,0.2,0.1c0-0.1,0.1-0.2,0.1-0.2c0.1-0.1,0.1-0.2,0.2-0.3
			c0.1-0.1,0.1-0.2,0.2-0.2c0-0.1,0.1-0.1,0.1-0.1l0.1-0.1h0.1h0.1l0.5-0.5l0.1-0.1h0.1h0.1c0.2-0.1,0.3-0.2,0.4-0.3
			c0.1-0.1,0.2-0.1,0.2-0.1l-0.4-0.4l-0.1,0.1c-0.1,0-0.2-0.1-0.3-0.2s-0.2-0.2-0.4-0.4c-0.1-0.1-0.2-0.3-0.3-0.4
			c-0.1-0.2-0.2-0.3-0.3-0.3l-0.5-0.5c0.1-0.1,0.2-0.1,0.3-0.2s0.2-0.2,0.2-0.3v0.1c0.1-0.1,0.1-0.2,0.2-0.3
			C-184.4,500.6-184.4,500.5-184.3,500.5L-184.3,500.5z M-198.3,489.8c0,0.1,0,0.1,0,0.2s0,0.1,0.1,0.2l0.2-0.1l-0.1-0.5
			L-198.3,489.8z M-198.3,493.6L-198.3,493.6l0.3-0.3l-0.1-0.1L-198.3,493.6z M-198,507.2c-0.1,0.1-0.2,0.3-0.3,0.4l0.4-0.3
			L-198,507.2z M-198.2,496.5L-198.2,496.5L-198.2,496.5v0.2c0.2-0.1,0.3-0.2,0.5-0.3l0.1-0.2c-0.1,0.1-0.2,0.2-0.4,0.3H-198.2
			L-198.2,496.5z M-198,490.4c0,0-0.1,0-0.1,0.1c0,0-0.1,0-0.1,0.1v0.2l0.2-0.2C-197.9,490.5-197.9,490.5-198,490.4z M-198.1,493.9
			l0.2,0.3c0-0.1,0.1-0.1,0.1-0.2s0.1-0.1,0.2-0.2l-0.1-0.3L-198.1,493.9z M-197.7,486.7c0-0.1,0-0.1,0-0.2s0-0.1,0-0.2s0-0.1,0-0.2
			s0-0.1,0-0.2l-0.3,0.3c0,0.2-0.1,0.5-0.1,0.7l0.1-0.1C-197.9,486.7-197.8,486.7-197.7,486.7z M-197.6,487.6c0,0,0-0.1,0-0.3
			l-0.4,0.3c0,0.1,0,0.3,0,0.4s0,0.2,0.1,0.4c0.1,0,0.1,0,0.2-0.1c0,0,0.1,0,0.2-0.1v-0.1V488c0-0.1,0-0.1,0-0.2
			S-197.6,487.7-197.6,487.6z M-197.6,506.1c-0.1,0-0.1,0.1-0.2,0.1c-0.1,0-0.1,0.1-0.2,0.2l0.1,0.2L-197.6,506.1z M-198,491.1
			l0.1,0.4l0.2-0.1l-0.1-0.5L-198,491.1z M-197.3,507.7L-197.3,507.7C-197.4,507.7-197.4,507.7-197.3,507.7l-0.3-0.2l-0.4,0.3
			l0.4,0.1l0.1,0.1C-197.4,507.9-197.4,507.8-197.3,507.7L-197.3,507.7z M-197.6,485.1c0-0.1,0.1-0.1,0.1-0.2s0.1-0.2,0.1-0.3l0,0
			l0,0l-0.1,0.1l0,0c0,0,0,0,0.1,0c0,0,0,0,0.1,0s0,0,0.1,0l-0.3,0.2c-0.1,0.3-0.2,0.5-0.3,0.7l0.3-0.3
			C-197.6,485.2-197.6,485.1-197.6,485.1z M-197.9,505.1l0.4,0.4l0,0l-0.3-0.6L-197.9,505.1z M-197.9,495L-197.9,495
			C-197.8,495.1-197.8,495.1-197.9,495L-197.9,495z M-197.4,489.8c0-0.1-0.1-0.3-0.1-0.4s-0.1-0.3-0.1-0.4l-0.1,0.1l-0.1,0.1
			l0.1,0.7C-197.6,489.8-197.5,489.8-197.4,489.8z M-196.8,494.6c0,0-0.1-0.1-0.2-0.2c0,0,0,0.1-0.1,0.1c0,0.1-0.1,0.1-0.2,0.1
			c0,0,0,0-0.1,0l-0.2,0.2l0.1,0.1c0,0.1-0.1,0.2-0.2,0.2c-0.1,0-0.2,0-0.2,0l0.1,0.1c0.1-0.1,0.2-0.2,0.3-0.3
			c0.1-0.1,0.2-0.2,0.4-0.2L-196.8,494.6z M-197.8,491.8c0,0.1,0,0.1,0.1,0.2c0,0.1,0,0.1,0.1,0.2c0-0.1,0.1-0.1,0.2-0.2
			c0-0.1-0.1-0.2-0.1-0.3L-197.8,491.8z M-197.5,494.3L-197.5,494.3c-0.1,0-0.1,0-0.2,0.1s-0.1,0.1-0.1,0.2L-197.5,494.3z
			 M-197.7,506.8l0.2,0.3l0.6-0.4l-0.4-0.4L-197.7,506.8z M-197.3,490.3c0,0.1-0.1,0.1-0.1,0.2s-0.1,0.1-0.1,0.1l0.1,0.4
			c0,0.1,0,0.2,0.1,0.2h0.1h0.1h0.1h0.1c-0.1-0.2-0.2-0.5-0.2-0.8L-197.3,490.3L-197.3,490.3z M-197.5,492.5l0.1,0.3
			c0.1,0,0.2-0.1,0.3-0.1c0-0.1-0.1-0.1-0.1-0.2s-0.1-0.1-0.1-0.2L-197.5,492.5z M-196.7,506.9l-0.8,0.1l0.4,0.4l-0.2-0.2
			L-196.7,506.9z M-197.4,495.8c0.1,0,0.2,0.1,0.2,0.2v0.1c0-0.1,0.1-0.2,0.2-0.3c0.1-0.2,0.3-0.3,0.4-0.5c-0.1,0.1-0.3,0.2-0.4,0.2
			C-197.1,495.6-197.2,495.7-197.4,495.8L-197.4,495.8z M-197.2,491.6L-197.2,491.6c0,0.1,0,0.1,0,0.1l0.1-0.1H-197.2z M-196.9,493
			c-0.1,0-0.1,0-0.2,0.1c-0.1,0-0.1,0-0.2,0.1l0.1,0.1L-196.9,493z M-197.1,508.2l0.2-0.2h-0.1C-197,508-197,508.1-197.1,508.2
			L-197.1,508.2z M-196.2,492.6c-0.1-0.1-0.2-0.3-0.3-0.4s-0.2-0.3-0.2-0.4c-0.1,0.1-0.1,0.1-0.2,0.1c-0.1,0-0.1,0.1-0.2,0.1
			c0,0.1,0.1,0.2,0.2,0.3c0.1,0.1,0.1,0.2,0.2,0.3h0.1h0.1h0.1H-196.2z M-196.7,493.7c0.1,0,0.2-0.1,0.3-0.1c0,0,0-0.1-0.1-0.1
			c0,0,0-0.1-0.1-0.1c0,0-0.1,0.1-0.2,0.2c-0.1,0.1-0.2,0.2-0.2,0.2l0.1,0.2l0.1-0.1C-196.8,493.7-196.8,493.7-196.7,493.7z
			 M-196.2,506.3c-0.1-0.1-0.3-0.2-0.4-0.3c-0.1-0.1-0.2-0.2-0.3-0.3v0.1l0.4,0.8c0.1,0,0.1-0.1,0.2-0.1
			C-196.4,506.3-196.3,506.3-196.2,506.3z M-195.6,493.8c0.1-0.1,0.1-0.1,0.2-0.1c0.1,0,0.2,0.1,0.2,0.2l-0.1,0.2c0,0,0.1,0,0.1-0.1
			c0,0,0.1,0,0.1-0.1l-0.3-0.4c0,0,0,0,0-0.1v-0.1l-0.1-0.1c-0.1-0.1-0.2-0.2-0.3-0.3c-0.1-0.1-0.2-0.2-0.3-0.3c0,0.1,0,0.1-0.1,0.2
			s-0.1,0.1-0.2,0.1c0.1,0.1,0.1,0.2,0.2,0.4c0,0,0,0,0.1,0h0.1c0.1,0,0.1,0.1,0.1,0.2c0,0,0,0.1-0.1,0.2c0,0.1-0.1,0.1-0.2,0.1l0,0
			c0,0.1-0.1,0.2-0.2,0.2h-0.1c-0.1,0-0.1-0.1-0.1-0.1l-0.2,0.1l-0.1,0.1l-0.1,0.1l0.1,0.1h0.1h0.1h0.1l0.1,0.1
			c0.2-0.1,0.4-0.2,0.5-0.3c0.1-0.1,0.2-0.1,0.2-0.1h0.1C-195.6,493.9-195.6,493.9-195.6,493.8z M-196.7,507.7c0,0,0.1,0,0.2,0.1
			l0.2-0.1l-0.1-0.2L-196.7,507.7z M-196.5,508.3c0.2,0,0.3,0,0.5,0s0.3,0,0.5,0.1c0,0,0,0,0-0.1c-0.3,0-0.5-0.1-0.8-0.2
			L-196.5,508.3z M-195.8,508.7c-0.1,0-0.2,0-0.2,0c-0.1,0-0.2,0-0.2,0C-196.1,508.7-196,508.7-195.8,508.7
			C-196,508.7-195.9,508.7-195.8,508.7z M-195.5,506.8c-0.1,0-0.3-0.1-0.4-0.2c0,0.1-0.1,0.3-0.3,0.4l0.2,0.3l0.1-0.1l-0.1-0.1V507
			c0,0,0.1-0.1,0.2-0.1C-195.6,506.8-195.5,506.8-195.5,506.8c0,0.1,0.1,0.1,0.1,0.1s0,0,0.1,0L-195.5,506.8z M-196.1,506
			c0.2,0.1,0.4,0.3,0.5,0.3s0.3,0.1,0.4,0.2l0,0l0,0c-0.2,0-0.3-0.1-0.5-0.2C-195.8,506.1-195.9,506-196.1,506z M-195.1,507.2
			c-0.1,0.1-0.1,0.1-0.2,0.2c-0.1,0.1-0.1,0.1-0.2,0.2l0.1,0.1c0,0,0-0.1,0.1-0.2s0.2-0.2,0.4-0.3L-195.1,507.2L-195.1,507.2z
			 M-189.7,500c0.2,0.2,0.4,0.3,0.5,0.5c0.2,0.2,0.3,0.4,0.5,0.6l-0.2,0.1l-0.3,0.4l-0.1-0.1l0,0l0,0l-0.1,0.1
			c0,0.1,0.1,0.1,0.1,0.1l0.1,0.1c0,0.1-0.1,0.2-0.2,0.2h-0.1l-0.1-0.1c-0.1,0.2-0.3,0.3-0.4,0.5c-0.1,0.1-0.2,0.2-0.3,0.3
			c-0.1,0.1-0.1,0.1-0.2,0.1c-0.1,0-0.1,0.1-0.2,0.1c0,0.1,0.1,0.1,0.1,0.1c0,0.1-0.1,0.2-0.2,0.2h-0.1l-0.1-0.1
			c-0.1,0.1-0.3,0.1-0.4,0.1l0.1,0.1c0,0.1-0.1,0.2-0.2,0.2c-0.1,0-0.2,0-0.3,0c-0.3,0-0.6-0.1-0.9-0.2s-0.6-0.2-0.8-0.4
			c-0.1,0-0.2,0-0.3-0.1s-0.2-0.1-0.4-0.1c-0.1,0-0.2-0.1-0.3-0.2s-0.2-0.1-0.2-0.2l0,0c-0.1-0.1-0.1-0.1-0.1-0.2s0.1-0.2,0.2-0.2
			l0,0c-0.1-0.1-0.1-0.2-0.2-0.3c-0.1-0.1-0.2-0.2-0.3-0.3c-0.1-0.1-0.1-0.3-0.1-0.4s0-0.2,0.1-0.3c0-0.1,0.1-0.1,0.2-0.1l0,0
			c0-0.1,0-0.2,0-0.2s0-0.2,0-0.3V500l0,0l0,0l0.1-0.1c0-0.4,0.2-0.8,0.4-1.2c0.2-0.4,0.5-0.7,0.8-1l0.1-0.1c0-0.1,0.1-0.1,0.1-0.2
			s0.1-0.1,0.1-0.2l0.1-0.1c0-0.1,0.1-0.1,0.2-0.1l0.1-0.1l-0.1-0.1c0.1-0.1,0.2-0.1,0.3-0.2s0.2-0.1,0.2-0.2
			c0.1,0.1,0.2,0.2,0.3,0.3c0.1,0.1,0.2,0.2,0.3,0.3s0.2,0.2,0.2,0.3c0.1,0.1,0.1,0.1,0.1,0.2v0.1l0.6,0.7c0.1,0,0.2,0.1,0.2,0.2
			l0.3,0.3c0.1,0.1,0.2,0.2,0.3,0.3s0.2,0.2,0.3,0.3s0.2,0.2,0.3,0.3C-189.7,499.8-189.7,499.9-189.7,500z M-195.2,508.5
			C-195.1,508.5-195.1,508.5-195.2,508.5c0.1,0,0.1,0,0.1,0l0.1-0.1L-195.2,508.5C-195.1,508.4-195.2,508.4-195.2,508.5z
			 M-194.2,507.7c-0.1,0-0.2,0-0.2-0.1c-0.1,0-0.1,0-0.2-0.1c-0.1,0.1-0.1,0.2-0.2,0.3L-194.2,507.7L-194.2,507.7z M-194.7,506.6
			c0.1,0,0.1,0,0.2-0.1s0.1,0,0.1,0l-0.2-0.1L-194.7,506.6z M-193,502.7c0.2,0,0.4,0.1,0.6,0.1c0.2,0,0.4,0,0.6,0l0,0
			c0-0.1,0-0.1,0.1-0.1l-0.1-0.2l0,0l-0.1-0.1c-0.1,0-0.2-0.1-0.3-0.2s-0.2-0.3-0.3-0.4l0,0c0,0.1-0.1,0.2-0.2,0.2
			c0,0-0.1,0-0.2-0.1c-0.1-0.1-0.1-0.2-0.2-0.3c-0.1-0.1-0.1-0.2-0.2-0.3s-0.1-0.2-0.1-0.3c-0.2-0.2-0.4-0.4-0.5-0.6
			s-0.3-0.4-0.4-0.7c-0.2,0.2-0.3,0.3-0.3,0.5c-0.1,0.2-0.1,0.4-0.1,0.6c0,0.1,0,0.2,0.1,0.3c0.1,0.1,0.1,0.3,0.2,0.4
			c0.1,0.1,0.2,0.3,0.3,0.4s0.2,0.2,0.3,0.3c0.1,0.1,0.1,0.1,0.2,0.2c0.1,0,0.2,0.1,0.3,0.1s0.2,0.1,0.2,0.1
			C-193,502.6-193,502.6-193,502.7z M-194.2,508.8c0-0.2,0.1-0.3,0.2-0.5l-0.4,0.1l-0.2,0.1c0.1,0,0.2,0.1,0.2,0.2
			c0,0,0,0.1-0.1,0.1L-194.2,508.8z M-192.5,492.2c0,0.1-0.1,0.1-0.1,0.2c0,0-0.1,0.1-0.1,0.2c-0.1-0.1-0.2-0.3-0.3-0.5V492
			l-0.1-0.1c0-0.1-0.1-0.2-0.2-0.2c-0.1-0.1-0.2-0.2-0.3-0.3c-0.1-0.1-0.2-0.2-0.2-0.3c-0.1-0.1-0.1-0.2-0.1-0.3l0,0l0,0
			c-0.1-0.2-0.2-0.5-0.4-0.8c-0.1-0.3-0.2-0.6-0.2-0.8l0,0c0-0.1,0-0.2,0.1-0.2c0-0.1,0-0.1,0-0.2v-0.1c0-0.2-0.1-0.4-0.1-0.5
			c0-0.3,0-0.5,0.1-0.7s0.2-0.4,0.3-0.6c0.1-0.1,0.2-0.2,0.4-0.4c0.2-0.1,0.3-0.3,0.6-0.4s0.4-0.2,0.7-0.3c0.2-0.1,0.5-0.1,0.7-0.1
			c0.1,0,0.3,0,0.4,0s0.3,0,0.4,0.1c0.1,0,0.2,0.1,0.3,0.1c0.1,0.1,0.1,0.1,0.1,0.2s0,0.1-0.1,0.2c0.1,0.1,0.1,0.1,0.2,0.2
			s0.1,0.2,0.1,0.2c0,0.1,0,0.1-0.1,0.2c0,0.1,0,0.1,0,0.1h0.1c0.1,0,0.1,0,0.2,0.1l0,0l0,0l0,0c0,0.1,0,0.1,0,0.2s0,0.1,0,0.2
			s0,0.2,0,0.4c0,0.1,0,0.2-0.1,0.3l0,0l0,0l0,0c0,0.2,0,0.4-0.1,0.6s-0.1,0.4-0.2,0.7c-0.1,0.2-0.2,0.4-0.3,0.6s-0.2,0.4-0.3,0.5
			l-0.1,0.1c0,0,0,0,0,0.1l0,0c0,0.1-0.1,0.1-0.1,0.1l-0.6,0.6c-0.1,0.2-0.3,0.3-0.4,0.5v0.1c-0.1,0-0.1,0.1-0.2,0.2
			C-192.4,492.1-192.5,492.2-192.5,492.2l-0.1-0.1L-192.5,492.2z M-194.4,507.2C-194.5,507.2-194.5,507.2-194.4,507.2
			s0.2,0.1,0.3,0.1s0.2,0.1,0.3,0.1l0.2-0.2c-0.1,0-0.2,0-0.4,0S-194.3,507.2-194.4,507.2z M-194.2,506.9c0.2,0,0.3,0,0.5,0
			s0.3,0,0.5-0.1l0.1-0.1c-0.2,0-0.4,0-0.5,0c-0.2,0-0.3-0.1-0.5-0.1l0,0c0,0,0,0,0,0.1L-194.2,506.9z M-193.8,487.7
			c0,0.1,0,0.1,0,0.2s0,0.1,0,0.2c0,0,0,0,0.1-0.1h0.1c0-0.2,0.1-0.3,0.2-0.4c0,0,0,0-0.1,0c0,0,0,0-0.1,0
			C-193.6,487.7-193.7,487.7-193.8,487.7L-193.8,487.7z M-192.3,488.4C-192.3,488.4-192.4,488.4-192.3,488.4c-0.1,0-0.1-0.1-0.2-0.1
			c0,0,0,0-0.1-0.1c-0.2,0.1-0.4,0.1-0.6,0.1c-0.2,0-0.4,0-0.6,0c-0.1,0-0.1,0-0.1-0.1c0,0.2,0,0.4,0.1,0.7s0.1,0.5,0.2,0.7l0.6,1.2
			c0.1,0.1,0.1,0.1,0.2,0.2c0.1,0.1,0.1,0.2,0.2,0.2c0-0.1,0.1-0.1,0.2-0.2c0.1-0.1,0.1-0.1,0.2-0.2l0,0v-0.1c0-0.1,0.1-0.1,0.1-0.2
			s0-0.2,0.1-0.4c0-0.1,0.1-0.2,0.1-0.4l-0.1-0.1c0-0.1,0-0.2,0.1-0.2c0-0.1,0-0.3,0-0.4s0-0.2,0-0.3c-0.1-0.1-0.1-0.3-0.1-0.4
			C-192,488.6-192.1,488.5-192.3,488.4z M-193.9,499.1l0.1,0.2l0.2-0.3h-0.1c0,0-0.1,0-0.1-0.1L-193.9,499.1z M-193.5,487.2
			L-193.5,487.2l-0.1,0.2c0,0,0,0,0.1,0s0.1,0,0.2-0.1l0.1-0.1c0,0,0.1-0.1,0.2-0.1c0.1,0,0.2-0.1,0.3-0.1c0-0.1,0.1-0.2,0.1-0.3
			c0-0.1,0.1-0.2,0.2-0.3c-0.2,0-0.3,0.1-0.4,0.2C-193.1,486.7-193.3,486.9-193.5,487.2z M-193.2,508L-193.2,508
			c0.1-0.1,0.2-0.2,0.3-0.3s0.2-0.2,0.3-0.2l-0.5,0.2c-0.1,0.1-0.2,0.2-0.3,0.3c-0.1,0.1-0.2,0.2-0.3,0.4l0.3-0.3L-193.2,508z
			 M-193.2,499.8C-193.2,499.8-193.2,499.9-193.2,499.8c0,0.1,0,0.2,0.1,0.2c0,0,0-0.1,0-0.2l-0.3-0.5l-0.1,0.3l0.1,0.1
			C-193.3,499.7-193.3,499.8-193.2,499.8z M-193.4,498.4L-193.4,498.4c0.1,0,0.2,0,0.2,0l0.2-0.3l-0.2-0.3h-0.1c0,0,0,0,0,0.1
			s0,0,0,0.1c0,0,0.1,0.1,0.1,0.2L-193.4,498.4z M-193,507.1c0,0-0.1,0.1-0.2,0.1c-0.1,0.1-0.2,0.1-0.3,0.2l0.1-0.1
			c0.1-0.1,0.1-0.1,0.2-0.2C-193,507.2-193,507.2-193,507.1z M-193.4,506.3c0.1,0,0.1,0,0.2,0c0.1,0,0.1,0,0.2,0
			c0.5,0,1-0.1,1.5-0.2c-0.3,0-0.6,0.1-0.9,0.1C-192.8,506.3-193.1,506.3-193.4,506.3z M-193.1,508.5c0.3-0.1,0.5-0.1,0.8-0.1l0,0
			c0-0.1,0.1-0.1,0.1-0.2s0.1-0.1,0.1-0.2l-0.2,0.1c-0.1,0.1-0.2,0.1-0.3,0.1s-0.1,0-0.2,0l-0.1,0.1
			C-192.9,508.3-193,508.3-193.1,508.5C-193,508.4-193.1,508.4-193.1,508.5z M-192.8,498.4c-0.1,0.1-0.1,0.1-0.2,0.2l0.2,0.3
			l0.1-0.3L-192.8,498.4z M-193,497.5L-193,497.5l0.2,0.3c0.1-0.1,0.1-0.1,0.2-0.2l-0.2-0.3L-193,497.5L-193,497.5z M-192.6,500.8
			l-0.2-0.4c0,0,0,0-0.1,0l0.2,0.2L-192.6,500.8z M-192.7,499.9l0.1-0.1l-0.1-0.1l-0.1,0.1L-192.7,499.9z M-192.7,487.7l0.1-0.1
			h-0.1V487.7z M-192.3,497.9c-0.1,0-0.1,0.1-0.1,0.1l-0.1,0.1l0.1,0.2L-192.3,497.9L-192.3,497.9z M-191.9,486.2
			c0.1-0.1,0.1-0.1,0.2-0.1c0.1,0,0.2,0.1,0.2,0.2s-0.1,0.2-0.1,0.2l0.1-0.1c0,0,0,0,0-0.1c0,0,0,0,0-0.1l0,0l0.1-0.1h0.1V486
			c-0.1,0-0.2-0.1-0.3-0.1c-0.1-0.1-0.2-0.1-0.2-0.1c-0.3,0.1-0.5,0.1-0.8,0.3C-192.4,486-192.2,486.1-191.9,486.2L-191.9,486.2z
			 M-192.2,499.2l-0.2-0.3l-0.1,0.3l0.2,0.2L-192.2,499.2z M-192.4,500.4l0.1-0.2v-0.1c0,0-0.1,0.1-0.2,0.1L-192.4,500.4z
			 M-192.2,507c-0.1,0-0.2,0-0.2,0.1c0,0-0.1,0-0.1,0.1L-192.2,507z M-192.4,487.1h0.1l0.3-0.5c0,0-0.1,0-0.1-0.1
			C-192.2,486.6-192.3,486.8-192.4,487.1z M-192,498.2l-0.2,0.5l0.2,0.3c0.1-0.1,0.1-0.1,0.2-0.2c0.1-0.1,0.1-0.1,0.2-0.2
			c0,0,0-0.1-0.1-0.1s0-0.1-0.1-0.1L-192,498.2C-191.9,498.2-191.9,498.2-192,498.2C-191.9,498.2-191.9,498.2-192,498.2L-192,498.2
			L-192,498.2z M-192.1,500.8l0.2-0.2l-0.1-0.1L-192.1,500.8L-192.1,500.8z M-191.9,488.2L-191.9,488.2l0.1,0.1l0,0l0,0l0,0
			c0,0,0-0.1,0.1-0.1c0,0,0-0.1,0.1-0.1c-0.1-0.1-0.2-0.2-0.3-0.3l-0.1,0.1l0,0l-0.1,0.2L-191.9,488.2L-191.9,488.2z M-192.1,499.8
			L-192.1,499.8l0.2-0.3l0,0L-192.1,499.8z M-191.9,501.2c0,0.1,0.1,0.1,0.1,0.2s0.1,0.1,0.2,0.2l0.2-0.4l-0.2-0.3L-191.9,501.2z
			 M-191.4,506.9l-0.5,0.1c0,0,0.1,0.1,0.1,0.2L-191.4,506.9z M-191.7,499.8l-0.2,0.3l0.2,0.2l0.2-0.3L-191.7,499.8z M-191.6,499
			C-191.6,499-191.6,499.1-191.6,499c-0.1,0.1-0.1,0.2-0.1,0.2l0,0l0,0L-191.6,499z M-191.7,487.4c0.1,0,0.1,0.1,0.2,0.1
			s0.1,0.1,0.1,0.1c0-0.1,0.1-0.1,0.1-0.2s0-0.1,0.1-0.2l-0.3-0.3L-191.7,487.4z M-191.6,508c0.2-0.1,0.4-0.2,0.5-0.3
			c0.2-0.1,0.3-0.2,0.5-0.4l-0.7,0.3L-191.6,508z M-191.4,489.3l0.2-0.3c0-0.2-0.1-0.3-0.1-0.5l-0.2,0.3L-191.4,489.3z
			 M-190.7,499.6c-0.1-0.1-0.2-0.2-0.2-0.3s-0.2-0.2-0.3-0.3c0,0.1-0.1,0.2-0.1,0.3c0,0.1-0.1,0.2-0.2,0.3l0.3,0.3
			C-191,499.7-190.8,499.6-190.7,499.6z M-191.1,500.4L-191.1,500.4C-191.2,500.4-191.2,500.4-191.1,500.4l-0.4,0.2l0.2,0.2
			c0-0.1,0.1-0.1,0.1-0.2C-191.2,500.6-191.1,500.5-191.1,500.4z M-191.2,489.5l-0.2,0.3c0,0.1,0,0.1,0,0.2s0,0.1,0,0.2l0.2-0.3l0,0
			c0,0,0,0,0-0.1l0,0V489.5z M-191.1,486.7c0-0.1,0.1-0.2,0.2-0.2c0.1,0,0.2,0.1,0.2,0.2s0,0.2,0,0.2s0,0.2-0.1,0.2
			c0.1,0.1,0.1,0.2,0.2,0.4h0.1h0.1c0-0.2-0.1-0.3-0.1-0.5s-0.1-0.4-0.1-0.5c-0.1,0-0.3-0.1-0.4-0.2l-0.3,0.3l0.2,0.2
			C-191.1,486.8-191.1,486.8-191.1,486.7z M-191.1,488l0.2,0.3c0-0.1,0-0.1,0.1-0.2s0-0.1,0-0.1h-0.1c0,0-0.1-0.1-0.1-0.2
			L-191.1,488z M-190.9,502l-0.1-0.1l-0.1,0.2L-190.9,502z M-190.8,502.7c0.1,0,0.2-0.1,0.3-0.2l-0.1-0.2c-0.1,0-0.1,0-0.2,0.1
			c-0.1,0-0.1,0-0.2,0.1C-190.9,502.6-190.9,502.6-190.8,502.7z M-190.9,500.1L-190.9,500.1C-191,500.1-190.9,500.1-190.9,500.1
			L-190.9,500.1z M-190.3,501.2c-0.1,0.1-0.1,0.1-0.2,0.2c-0.1,0.1-0.1,0.1-0.2,0.2l0.2,0.3c0.1,0,0.2-0.1,0.3-0.2s0.2-0.1,0.3-0.2
			L-190.3,501.2z M-190.5,500l-0.2,0.3l0,0l0,0L-190.5,500L-190.5,500z M-190.6,506.8L-190.6,506.8l0.8-0.3c-0.1,0-0.3,0-0.5,0.1
			C-190.5,506.6-190.6,506.7-190.6,506.8z M-190.5,488.3v0.1V488.3L-190.5,488.3z M-190.3,506.3l0.4-0.1c0.1,0,0.2,0.1,0.2,0.2
			s0,0.1-0.1,0.2l0.2-0.1l0.5-0.5l0,0l0,0c0,0,0-0.1,0.1-0.1s0.1-0.1,0.1-0.1l0.4-0.4c0,0,0.1-0.1,0.2-0.2s0.2-0.2,0.4-0.4
			c0.1-0.1,0.3-0.2,0.4-0.3c0.1-0.1,0.2-0.2,0.2-0.2c-0.2,0.1-0.3,0.2-0.5,0.3l-0.1,0.1c0,0.1-0.1,0.1-0.2,0.2
			c-0.1,0.1-0.2,0.2-0.2,0.3s-0.2,0.2-0.2,0.2c-0.1,0.1-0.1,0.1-0.1,0.2l0,0l-0.1,0.1c-0.1,0-0.1,0-0.1-0.1
			c-0.1,0.1-0.2,0.2-0.3,0.2c-0.1,0.1-0.2,0.1-0.3,0.1L-190.3,506.3L-190.3,506.3z M-189.8,501.1c-0.1-0.1-0.2-0.2-0.2-0.3
			c0,0,0,0,0,0.1c0,0,0,0-0.1,0.1l0.5,0.4h0.1l0,0C-189.6,501.2-189.7,501.1-189.8,501.1z M-188.9,506.4L-188.9,506.4L-188.9,506.4
			L-188.9,506.4z M-188.6,506.2l0.1-0.1l0.1-0.1l-0.1-0.2l-0.3,0.3l0,0L-188.6,506.2z M-188.6,496.8l0.1,0.1c0,0,0.1,0.1,0.1,0.2
			V497C-188.5,497-188.6,496.9-188.6,496.8z M-188.1,506.3L-188.1,506.3L-188.1,506.3l-0.2,0.1l0.1,0.1
			C-188.2,506.5-188.2,506.4-188.1,506.3z M-188,505.4C-188,505.4-188.1,505.4-188,505.4c-0.1,0-0.1,0.1-0.1,0.1l0.1,0.2l0.1-0.2
			L-188,505.4L-188,505.4z M-187.6,505.1c-0.1,0-0.1,0.1-0.1,0.1l0,0L-187.6,505.1z M-187.4,506.2c-0.1,0.1-0.1,0.1-0.1,0.2
			s-0.1,0.2-0.1,0.2l0.1,0.2c0.1-0.2,0.2-0.3,0.3-0.5L-187.4,506.2z M-187.6,485.6c0,0.1,0,0.2,0.1,0.2c0,0.1,0,0.2,0,0.2v-0.1
			L-187.6,485.6z M-187.4,507.2C-187.4,507.1-187.4,507.1-187.4,507.2L-187.4,507.2L-187.4,507.2z M-187.3,486.8
			C-187.3,486.8-187.4,486.8-187.3,486.8c0,0.1,0,0.2,0,0.4c0,0.1,0,0.3,0,0.4c0-0.2,0.1-0.3,0.1-0.5
			C-187.3,487-187.3,486.9-187.3,486.8c0,0,0-0.1,0-0.2V486.8z M-187.3,505.7l0.2-0.1c0,0,0,0-0.1-0.1c0,0,0,0-0.1-0.1
			c0,0,0,0.1-0.1,0.1C-187.3,505.6-187.3,505.6-187.3,505.7L-187.3,505.7z M-187.1,504.3L-187.1,504.3L-187.1,504.3L-187.1,504.3z
			 M-186.8,505.8c-0.1,0-0.2,0.1-0.3,0.1l0.1,0.2l0.3-0.2L-186.8,505.8z M-186.6,504.7c-0.1,0.1-0.2,0.2-0.3,0.3l-0.2,0.2l0.3,0.3
			c0.1-0.1,0.2-0.1,0.2-0.2c0.1-0.1,0.1-0.1,0.2-0.2L-186.6,504.7z M-186.8,498.7h0.1c-0.1,0-0.1,0-0.1-0.1V498.7L-186.8,498.7z
			 M-186.5,498l-0.1,0.2v0.1c0,0,0,0.1,0.1,0.1h0.1h0.1l0.3-0.5h-0.1h-0.1h-0.1C-186.4,498-186.4,498-186.5,498L-186.5,498z
			 M-186.2,505.8h0.1l0.1-0.1c0,0,0.1-0.1,0.2-0.1c-0.1,0-0.1-0.1-0.2-0.1c-0.1,0-0.1-0.1-0.2-0.2c0,0.1-0.1,0.2-0.2,0.2
			c-0.1,0.1-0.1,0.1-0.2,0.2v0.1H-186.2z"/>
	</g>
	<g class="st0">
		<path class="st1" d="M-180.4,506.8c0.9-21.5,0.9-22.6,1.4-22.9c-0.1,0,1-0.1,1.7-0.1c1.2,0,3,0.2,3.2,1l2.3,8.1
			c2.2-9.1,2.3-9.1,3.5-9.1h0.3l2.4,0.2c0.6,0.1,0.9,1.5,0.9,1.9l1.5,20.2v1c0,0.2-0.4,0.4-0.6,0.4h-2.7c-0.4,0-0.6-0.5-0.6-0.9
			c-0.2-4.2-0.1-1.1-0.9-15.4c-2,7-3,8.7-3.7,8.7c-0.5,0-1,0-1.1-0.2c-1.1-0.8-0.5-1.4-3.3-9c-0.1,0.8-0.1,3.6-0.1,6.7
			c0,4.9,0,10.5-0.7,10.5h-3c-0.4,0-0.4-0.6-0.4-1C-180.4,507.1-180.4,506.8-180.4,506.8z"/>
		<path class="st1" d="M-161.6,493.7c0-4.7,0.2-10.2,5.8-10.2c2.5,0,5.3,1.6,5.5,4.6c0.1,1.9,0.1,3.7,0.1,5.6c0,2.4-0.1,4.8-0.1,7.3
			c0,0.1,0,0.1,0,0.1c-0.3,4.4-0.6,7.5-5.3,7.5c-1.8,0-4.6-0.3-5.2-2.7C-161.5,503.4-161.6,497.9-161.6,493.7z M-155.7,505
			c0.6,0,1.3-0.4,1.4-1.3c0.2-3.8,0.3-9,0.3-12.7v-1.9c-0.1-1.1-0.4-1.6-1.8-1.6c-1.7,0-1.7,1.1-1.7,2.3v0.4c0,7.5,0,10.7,0.1,13.6
			C-157.3,504.5-156.5,505-155.7,505z"/>
		<path class="st1" d="M-147.4,484.3c0-0.4,0.1-0.9,0.6-1.1c0.9-0.1,1.7-0.1,2.6-0.1h3.5c2.9,0.3,3.6,2.7,3.8,5.2
			c0,4.2-0.1,5.7-0.1,6c-0.5,2.1-1.8,2.3-2.3,2.9v0.1c1,2,2.8,6.3,2.8,9.6c0,0.6-2.2,0.7-2.6,0.8c-0.6,0-0.7-0.9-0.8-1.4
			c0-1.5-1.6-8.1-3.3-8.1c-0.3,0-0.7,0-0.8,0.3v4c0,1.4,0,2.8,0,4.3c0,0.4,0,0.8-0.5,0.8h-2.6c-0.7,0-0.7-1-0.7-1.5L-147.4,484.3z
			 M-143.8,494.5c0,0.5,0.5,0.6,0.9,0.6c1,0,1.7-0.1,1.9-1.2c0.1-1.6,0.1-2.5,0.1-4v-1.8c-0.2-0.8-0.7-1.2-1.5-1.2s-1.3,0.3-1.4,1.1
			V494.5z"/>
		<path class="st1" d="M-133.4,483.6h3c0.6,0,3.6,0,4.2,0.1c0.3,0.1,0.4,0.2,0.4,0.4c0,0.9,0,1.7,0,2.6c0,0.4-0.1,0.7-0.7,0.7h-4
			l-0.3,0.3l0.2,6.1l3.1,0.1c0.4,0,0.6,0.8,0.6,1.6v0.3l-0.1,0.9c0,0.3-0.1,0.8-0.5,0.8h-2.8c0,0-0.1,0.1-0.2,0.1l-0.1,0.1l0.2,5.7
			c0.1,0.4,0.3,0.7,0.7,0.7h4c0.6,0,0.7,0.5,0.7,1l-0.2,2.1c0,0.3-0.3,0.5-0.6,0.6l-7.8,0.3c-0.4,0-0.9-0.5-0.9-9.3
			c0-2.4,0-4.7,0-7.2c0-2.4,0-4.9,0.1-7.5C-134.2,483.7-133.8,483.6-133.4,483.6z"/>
	</g>
	<g class="st0">
		<path class="st1" d="M-121,495.6c0-4.9,0.1-14.8,7.5-14.8c3,0,4.8,1.6,6,4.3v0.4c0,0.3,0,0.6-0.3,0.7l-3.3,1.6
			c-0.6-1.9-1.5-2.7-2.4-2.7c-2.2,0-3.2,4.8-3.2,9.5c0,4.8,1,9.5,3,9.5c3,0,3.1-2.2,3.1-4.8c0-0.5-0.1-1.4-0.5-1.4h-2.2
			c-0.2,0-0.5-0.5-0.5-0.7v-2.8c0-0.2,0.2-0.6,0.5-0.6c0.5,0,3.5-0.1,4.1-0.1h0.4c0.7,0,1.3,0,1.5,0.8c0.3,1.5,0.3,3,0.3,4.5
			c0,2.2-0.2,3.6-1,5.7c-0.9,2.5-3.6,3.3-5.9,3.3c-6.5,0-7.2-7.3-7.2-12.2L-121,495.6L-121,495.6z"/>
		<path class="st1" d="M-104,481.7c0-0.5,0.1-1,0.6-1.2c1-0.1,1.9-0.1,2.8-0.1h3.9c3.2,0.3,3.9,3,4.2,5.7c0,4.7-0.1,6.3-0.2,6.7
			c-0.5,2.3-2,2.5-2.6,3.2c0,0,0,0.1,0,0.2c1.1,2.3,3.1,6.9,3.1,10.6c0,0.7-2.4,0.8-2.9,0.9c-0.7,0-0.7-1-0.9-1.5
			c0-1.6-1.8-8.9-3.6-8.9c-0.3,0-0.8,0-0.9,0.4v4.5c0,1.6,0,3.2,0,4.8c0,0.5,0,0.9-0.6,0.9h-2.9c-0.7,0-0.7-1.1-0.7-1.6L-104,481.7z
			 M-99.9,493c0,0.5,0.5,0.7,1,0.7c1.1,0,1.8-0.2,2.1-1.3c0.2-1.7,0.2-2.8,0.2-4.4v-2c-0.2-0.9-0.8-1.3-1.7-1.3
			c-0.9,0-1.4,0.3-1.5,1.2L-99.9,493z"/>
		<path class="st1" d="M-88.5,480.9h3.3c0.7,0,4,0,4.7,0.1c0.3,0.1,0.4,0.2,0.5,0.5c0,0.9,0,1.8,0,2.9c0,0.4-0.1,0.8-0.8,0.8h-4.4
			l-0.4,0.4l0.2,6.8l3.4,0.1c0.5,0,0.6,0.9,0.6,1.7v0.3l-0.1,1c0,0.3-0.1,0.9-0.6,0.9h-3.1c0,0-0.1,0.1-0.2,0.1l-0.1,0.1l0.2,6.3
			c0.1,0.5,0.3,0.8,0.8,0.8h4.4c0.7,0,0.8,0.5,0.8,1.1l-0.2,2.3c0,0.3-0.3,0.6-0.6,0.7l-8.7,0.3c-0.5,0-0.9-0.6-0.9-10.3
			c0-2.6,0-5.2,0-8s0-5.5,0.1-8.3C-89.3,481-88.9,480.9-88.5,480.9z"/>
		<path class="st1" d="M-76.2,480.9h3.3c0.7,0,4,0,4.7,0.1c0.3,0.1,0.4,0.2,0.5,0.5c0,0.9,0,1.8,0,2.9c0,0.4-0.1,0.8-0.8,0.8h-4.4
			l-0.4,0.4l0.2,6.8l3.4,0.1c0.5,0,0.6,0.9,0.6,1.7v0.3l-0.1,1c0,0.3-0.1,0.9-0.6,0.9h-3.1c0,0-0.1,0.1-0.2,0.1l-0.1,0.1l0.2,6.3
			c0.1,0.5,0.3,0.8,0.8,0.8h4.4c0.7,0,0.8,0.5,0.8,1.1l-0.2,2.3c0,0.3-0.3,0.6-0.6,0.7l-8.7,0.3c-0.5,0-0.9-0.6-0.9-10.3
			c0-2.6,0-5.2,0-8s0-5.5,0.1-8.3C-77,481-76.6,480.9-76.2,480.9z"/>
		<path class="st1" d="M-60.7,488.5c-0.1,0-0.1,0.8-0.1,2.2c0,3.5,0.2,10.6,0.2,17.1c0,0.9-0.7,1-1.4,1c-0.2,0-0.5,0-0.7,0
			s-0.5,0-0.8,0c-0.6,0-1.2-0.1-1.3-0.6v-11.8c0-3.4-0.1-6.8-0.1-10.2c0-0.6,0-3.4,0-4c0-0.3,0.2-0.6,0.7-0.6h4.8
			c0.3,0,0.7,0.1,0.7,0.5L-53,501l-0.9-18.8c0.1-0.3,0.4-0.5,0.7-0.5h2.9c0.2,0,0.5,0.1,0.6,0.3v0.2c0,1.4,0.2,5.7,0.2,8.5
			c0,1.3,0.2,8.4,0.2,13.2c0,2.6-0.1,4.6-0.2,4.6h-4.2c-0.4,0-0.7-0.3-0.8-0.6L-60.7,488.5z"/>
	</g>
</g>
</svg>
